<?xml version="1.0" standalone="no"?>
<!DOCTYPE svg PUBLIC "-//W3C//DTD SVG 20010904//EN"
 "http://www.w3.org/TR/2001/REC-SVG-20010904/DTD/svg10.dtd">
<svg version="1.0" xmlns="http://www.w3.org/2000/svg"
 width="700.000000pt" height="700.000000pt" viewBox="0 0 700.000000 700.000000"
 preserveAspectRatio="xMidYMid meet">
<metadata>
Created by potrace 1.14, written by Peter Selinger 2001-2017
</metadata>
<g transform="translate(0.000000,700.000000) scale(0.100000,-0.100000)"
fill="#000000" stroke="none">
<path d="M3318 6104 c-2 -1 -37 -5 -78 -9 -41 -3 -82 -8 -90 -10 -8 -2 -35 -7
-60 -10 -25 -3 -85 -14 -135 -25 -663 -141 -1243 -535 -1626 -1106 -53 -79
-60 -90 -101 -163 -172 -303 -290 -675 -324 -1026 -11 -103 -11 -397 -1 -500
44 -458 209 -900 472 -1265 33 -47 70 -96 80 -109 78 -94 108 -127 193 -215
89 -90 275 -247 383 -321 46 -32 179 -115 184 -115 1 0 35 -18 76 -41 212
-117 573 -236 804 -265 28 -3 52 -8 55 -9 40 -24 661 -24 700 0 3 2 29 6 59
10 116 15 407 89 486 124 11 5 40 17 65 26 80 30 264 118 317 152 29 18 55 33
58 33 20 0 320 217 385 279 90 85 182 176 215 213 266 298 443 613 563 998 21
66 59 220 66 268 3 15 8 47 11 72 4 25 9 54 11 65 11 56 18 198 18 345 1 182
-8 296 -29 410 -3 14 -7 43 -11 65 -13 92 -92 379 -124 450 -5 11 -21 49 -36
85 -44 107 -116 248 -189 368 -28 46 -145 214 -154 222 -3 3 -26 30 -51 60
-90 112 -237 258 -354 353 -21 18 -43 37 -50 42 -6 6 -49 38 -96 71 -349 247
-739 401 -1160 458 -19 3 -57 8 -85 12 -46 6 -442 14 -447 8z"/>
</g>
</svg>
