<?xml version="1.0" standalone="no"?>
<!DOCTYPE svg PUBLIC "-//W3C//DTD SVG 20010904//EN"
 "http://www.w3.org/TR/2001/REC-SVG-20010904/DTD/svg10.dtd">
<svg version="1.0" xmlns="http://www.w3.org/2000/svg"
 width="400.000000pt" height="400.000000pt" viewBox="0 0 400.000000 400.000000"
 preserveAspectRatio="xMidYMid meet">
<metadata>
Created by potrace 1.14, written by Peter Selinger 2001-2017
</metadata>
<g transform="translate(0.000000,400.000000) scale(0.100000,-0.100000)"
fill="#000000" stroke="none">
<path d="M1752 3964 c-254 -34 -562 -141 -750 -261 -29 -18 -55 -33 -58 -33
-3 0 -49 -32 -102 -72 -275 -204 -485 -459 -629 -768 -67 -142 -139 -377 -159
-515 -3 -27 -9 -59 -11 -70 -13 -57 -12 -369 2 -473 17 -136 64 -337 100 -423
14 -34 25 -67 25 -72 0 -17 98 -214 134 -271 20 -31 36 -59 36 -62 0 -3 32
-49 72 -102 116 -158 233 -276 411 -418 16 -13 114 -78 197 -130 159 -99 476
-212 677 -239 26 -4 59 -9 73 -12 48 -10 376 -11 455 -1 742 88 1363 575 1630
1277 32 84 80 255 91 321 12 72 14 89 21 140 9 72 10 335 1 430 -8 88 -19 145
-53 290 -1 3 -5 20 -9 39 -27 111 -121 330 -201 466 -230 391 -592 694 -1020
853 -89 33 -293 87 -368 97 -27 4 -59 9 -70 12 -54 12 -397 10 -495 -3z"/>
</g>
</svg>
